Simulation
nRows=39
nColumns=15
endheader
time  TH_x TH_y TH_z SC_y  SC_z  SC_x  AC_y  AC_z  AC_x  GH_y  GH_z  GH_yy  EL_x  PS_y
0.0  0.000000  0.000000  0.000000  -42.69771735364987  0.5360289983981507  3.325028164901665  53.66561886578237  7.003561167046451  3.2824581283378413  20.005154974417504  14.044986580197302  -19.36091177600434  98.59719129350017  120.000000
0.04699999999999999  0.000000  0.000000  0.000000  -41.71065248625747  1.931921064458304  1.8694102742925316  54.034929751901394  9.386627828962322  6.096827471523762  33.64354059425321  16.92771809144479  -32.1064007113183  97.03642905826051  120.000000
0.09399999999999999  0.000000  0.000000  0.000000  -40.937866681339116  2.9853667668157122  0.051503049189891396  54.20895522797987  11.433897883918442  8.53578718444764  42.6656881555657  19.97522890665338  -40.266922317748715  94.56527073253737  120.000000
0.141  0.000000  0.000000  0.000000  -40.43311186567518  3.799721871366304  -1.8055708257759095  54.27244901257945  13.220971634003439  10.692716770365832  49.059270923378804  23.156923356028457  -45.916096193345616  90.89523655809855  120.000000
0.18799999999999997  0.000000  0.000000  0.000000  -40.132944605099475  4.480709839529782  -3.452757398649124  54.335492111931416  14.79784533657487  12.587176562724837  53.77885237460371  26.571107679708394  -50.130747469169485  85.86217417262266  120.000000
0.23499999999999996  0.000000  0.000000  0.000000  -39.996500748423166  5.12471311345493  -4.7137079681569505  54.48908192016338  16.159244859252613  14.250689292253245  57.341602996834716  30.28518937922989  -53.47538819609602  79.5972982527535  120.000000
0.282  0.000000  0.000000  0.000000  -39.9744824241687  5.762242810496744  -5.513407882036814  54.756260013108104  17.240391104017437  15.70926902993393  60.03319955380725  34.25202141088178  -56.251439090727246  72.31856687110198  120.000000
0.32899999999999996  0.000000  0.000000  0.000000  -40.03062761998185  6.409281521639367  -5.859339638000738  55.14821118173819  17.979619447875464  16.945764751271636  62.042546878792905  38.3492271892861  -58.602932481883364  64.32679475752099  120.000000
0.37599999999999995  0.000000  0.000000  0.000000  -40.13500943659259  7.06187548588412  -5.79914742454804  55.65196736249601  18.340074465843525  17.948210707483568  63.51087181410202  42.425381474041856  -60.59185931794724  55.95086364058961  120.000000
0.42299999999999993  0.000000  0.000000  0.000000  -40.263792804602566  7.696599423173829  -5.39830235375359  56.233406022304365  18.331966663456765  18.71393099289975  64.53937076600549  46.33236862571634  -62.227021983151914  47.52842879076866  120.000000
0.4699999999999999  0.000000  0.000000  0.000000  -40.40224509258079  8.289887575383583  -4.731667596038589  56.84989880710001  18.00355210383741  19.25390462610731  65.22370087173047  49.938427625464634  -63.50216651910204  39.39418444203562  120.000000
0.5169999999999999  0.000000  0.000000  0.000000  -40.5367878298985  8.815197646579932  -3.8794424559897607  57.45816256249313  17.426734371377098  19.587526064357405  65.65953460551219  53.135674556708686  -64.41845330886262  31.86507462124722  120.000000
0.564  0.000000  0.000000  0.000000  -40.65003651742299  9.25337529792573  -2.919734359473535  58.02043995387859  16.68364328099798  19.740242838644875  65.94276130084116  55.841380628768796  -65.00253910236928  25.234342100424303  120.000000
0.6109999999999999  0.000000  0.000000  0.000000  -40.72628168766862  9.593610366582498  -1.9224196450031945  58.5025557679484  15.858634610716921  19.737476102043257  66.14986456295931  57.99502765685221  -65.30215631530362  19.771315650362254  120.000000
0.6579999999999999  0.000000  0.000000  0.000000  -40.754541842515984  9.8370243631674  -0.951187101816579  58.86886143005946  15.031745615900835  19.602003364446066  66.31812982468139  59.55309436054781  -65.3787180008422  15.706415897370984  120.000000
0.7049999999999998  0.000000  0.000000  0.000000  -40.73395438734461  9.990976671063779  -0.0667905615284698  59.082881823566005  14.27429489754257  19.34925585296502  66.44074691310146  60.484666630802046  -65.2884070392794  13.217663147983975  120.000000
0.7519999999999999  0.000000  0.000000  0.000000  -40.67015417793143  10.067547080100276  0.6764893673010397  59.113634470164634  13.644707848828503  18.996437556991996  66.48307003891091  60.77582084780896  -65.06793458414283  12.395402733686053  120.000000
0.7989999999999999  0.000000  0.000000  0.000000  -40.57687151874862  10.075836890851056  1.240428558992934  58.95296303201981  13.191994520897305  18.564417639854835  66.40227342290638  60.44735790654458  -64.71643743874205  13.223096045721213  120.000000
0.8459999999999999  0.000000  0.000000  0.000000  -40.475057717093485  10.02460108321515  1.6086865992049575  58.62450320289828  12.955146659489126  18.085034546856022  66.16713958446205  59.562769866440505  -64.19339720605133  15.569791717825044  120.000000
0.8929999999999999  0.000000  0.000000  0.000000  -40.38944061961375  9.91809749765135  1.7854213413958395  58.17643954850015  12.959697380631285  17.59873113194436  65.76110031542312  58.21715627956427  -63.4270866927976  19.22040818446885  120.000000
0.9399999999999998  0.000000  0.000000  0.000000  -40.3446825240969  9.75806911108876  1.788560356760436  57.66589492018045  13.212860646470988  17.14597290191219  65.17455129093618  56.51628848745412  -62.336255461345125  23.91301474541651  120.000000
0.9869999999999999  0.000000  0.000000  0.000000  -40.361009934614785  9.54775801399959  1.6427324388370192  57.13864659640702  13.704215898794754  16.758036564692606  64.39224924525462  54.55651538740838  -60.853057904743  29.37870236328233  120.000000
1.0339999999999998  0.000000  0.000000  0.000000  -40.45677495025172  9.292079031889099  1.3735576926722177  56.62046792229903  14.410555268447242  16.45077144891173  63.38922045913409  52.41791092703608  -58.945243361449116  35.37430454506098  120.000000
1.0809999999999997  0.000000  0.000000  0.000000  -40.63620209350129  9.00022846757058  1.0030071424276297  56.11664260609356  15.300794072038942  16.228859866449827  62.148349979614075  50.1548000915781  -56.63321009268722  41.7001474214968  120.000000
1.128  0.000000  0.000000  0.000000  -40.89048344989075  8.684999150109602  0.551439670575342  55.62055600209645  16.33859026142987  16.089014616947953  60.67848825927398  47.79456964595953  -53.995236155393165  48.19688510933084  120.000000
1.1749999999999998  0.000000  0.000000  0.000000  -41.21135055247676  8.362343483629694  0.04519672033954122  55.11673445697118  17.48423642696191  16.025337567791123  59.02385177786863  45.34035613914863  -51.15672440444918  54.73585855903337  120.000000
1.2219999999999998  0.000000  0.000000  0.000000  -41.59428359264253  8.05517706437989  -0.47812999717230864  54.59006430103736  18.69567089731848  16.03777006756045  57.27328698743819  42.779374198422566  -48.27955878824082  61.20922696295605  120.000000
1.269  0.000000  0.000000  0.000000  -42.034967401510876  7.795719803162353  -0.966072770972792  54.039954775020824  19.934286676360337  16.13105702764534  55.56292313816712  40.096776723666416  -45.55548075680424  67.53198623175861  120.000000
1.3159999999999998  0.000000  0.000000  0.000000  -42.53049127926742  7.621524891726816  -1.347184753019631  53.473825706011134  21.16881287766331  16.317312972069377  54.062584824865375  37.28398298250045  -43.19411485112372  73.6421483288439  120.000000
1.3629999999999998  0.000000  0.000000  0.000000  -43.076337442758714  7.569067983987515  -1.5335727548648066  52.90303046994892  22.377638343863218  16.61352022945927  52.96638711697835  34.352029248378805  -41.41670808972862  79.50461738759131  120.000000
1.4099999999999997  0.000000  0.000000  0.000000  -43.6660798913901  7.664235960674726  -1.4369044085736056  52.34596068941521  23.541820524968834  17.032861368953956  52.497111738417146  31.35016433368467  -40.46404169376832  85.1103516633113  120.000000
1.4569999999999999  0.000000  0.000000  0.000000  -44.31129310631377  7.907886114465282  -0.9974642349976549  51.80421855881731  24.624051842865555  17.5711601680304  52.87785697051985  28.35836579130569  -40.567174997356815  90.45249991935398  120.000000
1.5039999999999998  0.000000  0.000000  0.000000  -45.04862024891292  8.286616744756586  -0.20061431099127053  51.26747614116254  25.567079738684566  18.194147112281406  54.30800856322237  25.482137389425148  -41.91900873248021  95.47423315422287  120.000000
1.5509999999999997  0.000000  0.000000  0.000000  -45.899766969078755  8.771752284583066  0.9459717476411834  50.750738063288274  26.32456173280936  18.866423713085446  57.00332535249428  22.878442854428613  -44.73079265585267  100.05458814773458  120.000000
1.5979999999999999  0.000000  0.000000  0.000000  -46.859554165851414  9.314668392579636  2.4259407874875265  50.3033853474953  26.88156581951697  19.57311855441808  61.13090481258612  20.746214964373756  -49.18810008234003  104.04323038603135  120.000000
1.6449999999999998  0.000000  0.000000  0.000000  -47.92552294259029  9.867791569546148  4.1892307782083265  49.99440542204435  27.236885993557603  20.296927028621813  66.55780420014231  19.259816019700605  -55.18897695276026  107.31975588874512  120.000000
1.6919999999999997  0.000000  0.000000  0.000000  -49.08239786815109  10.391877463205901  6.145122160593591  49.88684823458527  27.392508959379366  21.01034147239042  72.6541211123051  18.49944240428419  -62.133394165459826  109.82893401366516  120.000000
1.7389999999999997  0.000000  0.000000  0.000000  -50.292566404116464  10.864103436573902  8.18603707786004  50.018497532996214  27.366087010586007  21.68816051650329  78.47291141863904  18.410160537679808  -69.08709442490641  111.61253669746885  120.000000
1.7859999999999998  0.000000  0.000000  0.000000  -51.51345476174299  11.282453568584662  10.215009589512562  50.383791843039624  27.19588745113833  22.321565915964584  83.2449210889851  18.82136275206159  -75.26160848841467  112.80967091932578  120.000000
